<?xml version="1.0" standalone="no"?>
<!DOCTYPE svg PUBLIC "-//W3C//DTD SVG 20010904//EN"
 "http://www.w3.org/TR/2001/REC-SVG-20010904/DTD/svg10.dtd">
<svg version="1.0" xmlns="http://www.w3.org/2000/svg"
 width="120.000000pt" height="120.000000pt" viewBox="0 0 120.000000 120.000000"
 preserveAspectRatio="xMidYMid meet">
<metadata>
Created by potrace 1.11, written by Peter Selinger 2001-2013
</metadata>
<g transform="translate(0.000000,120.000000) scale(0.100000,-0.100000)"
fill="#000000" stroke="none">
<path d="M972 560 c-91 -24 -179 -76 -232 -138 -48 -56 -107 -171 -115 -227
l-7 -40 27 32 c26 32 204 158 212 150 2 -3 -18 -26 -45 -53 -72 -74 -155 -174
-149 -181 4 -3 41 -5 83 -5 127 2 218 61 279 183 31 60 62 175 66 245 3 46 2
49 -21 51 -14 1 -58 -6 -98 -17z"/>
<path d="M147 466 c-26 -7 -50 -16 -54 -19 -18 -18 67 -158 142 -232 42 -43
62 -54 127 -74 42 -12 92 -21 109 -19 l33 3 -40 26 c-49 33 -167 149 -159 157
3 4 14 1 23 -6 43 -30 195 -112 200 -107 7 7 -44 134 -67 165 -39 54 -58 70
-108 92 -58 26 -144 32 -206 14z m153 -260 c0 -3 -4 -8 -10 -11 -5 -3 -10 -1
-10 4 0 6 5 11 10 11 6 0 10 -2 10 -4z"/>
</g>
</svg>
