<?xml version="1.0" standalone="no"?>
<!DOCTYPE svg PUBLIC "-//W3C//DTD SVG 20010904//EN"
 "http://www.w3.org/TR/2001/REC-SVG-20010904/DTD/svg10.dtd">
<svg version="1.0" xmlns="http://www.w3.org/2000/svg"
 width="700.000000pt" height="700.000000pt" viewBox="0 0 700.000000 700.000000"
 preserveAspectRatio="xMidYMid meet">
<metadata>
Created by potrace 1.11, written by Peter Selinger 2001-2013
</metadata>
<g transform="translate(0.000000,700.000000) scale(0.100000,-0.100000)"
fill="#000000" stroke="none">
<path d="M3421 6333 c-235 -322 -421 -638 -556 -943 -21 -47 -41 -89 -45 -95
-3 -5 -13 -30 -20 -55 -7 -25 -17 -49 -21 -55 -22 -31 -149 -449 -165 -545 -3
-14 -11 -59 -19 -100 -40 -202 -50 -325 -50 -595 0 -321 22 -498 100 -805 51
-203 176 -503 298 -720 108 -191 276 -423 278 -384 0 11 2 46 4 79 2 33 6 110
9 170 3 61 8 139 11 175 10 130 16 202 20 243 12 124 17 176 20 217 4 51 13
133 19 170 5 28 13 89 21 165 4 28 11 79 17 115 5 36 11 77 13 91 8 55 46 255
55 284 5 17 12 42 15 58 3 15 8 39 11 55 18 90 123 362 139 362 3 0 3 -12 1
-27 -2 -16 -7 -53 -11 -83 -4 -30 -8 -66 -10 -80 -2 -14 -7 -74 -10 -135 -4
-60 -9 -128 -11 -150 -2 -22 -4 -166 -4 -320 -1 -261 2 -366 15 -555 3 -41 8
-109 11 -150 2 -41 7 -94 9 -117 12 -112 16 -142 21 -188 2 -27 9 -85 15 -127
13 -102 17 -132 25 -198 4 -30 9 -59 11 -63 8 -13 261 250 393 408 41 50 77
92 80 95 12 11 122 162 183 250 84 122 200 327 260 459 80 172 156 417 183
587 3 20 7 45 9 56 6 31 18 207 19 273 0 67 -13 265 -19 274 -1 3 -6 31 -10
61 -7 56 -40 194 -74 310 -54 183 -190 467 -327 681 -73 114 -226 326 -271
374 -10 11 -36 43 -57 70 -115 145 -473 526 -493 524 -4 0 -46 -52 -92 -116z"/>
<path d="M6917 3384 c-1 -1 -36 -5 -77 -8 -130 -11 -181 -17 -325 -37 -149
-20 -191 -27 -215 -34 -8 -3 -33 -7 -55 -10 -92 -14 -373 -87 -526 -138 -299
-99 -595 -240 -819 -391 -71 -48 -229 -163 -240 -175 -3 -3 -34 -31 -70 -61
-188 -159 -389 -387 -532 -607 -208 -318 -374 -727 -424 -1043 l-7 -44 44 34
c24 19 46 37 49 40 18 18 397 303 535 401 497 354 849 555 1103 628 34 10 62
17 62 15 0 -1 -53 -40 -117 -85 -154 -108 -409 -307 -479 -374 -6 -5 -44 -39
-84 -75 -219 -195 -551 -531 -725 -735 -33 -38 -74 -85 -92 -105 -18 -19 -31
-36 -29 -37 1 -2 25 -5 52 -8 214 -21 587 -21 789 0 28 3 71 8 96 10 78 8 277
44 363 66 44 11 88 22 96 24 44 9 207 68 290 103 347 148 609 357 842 673 70
95 184 304 261 479 32 74 119 348 147 464 30 124 33 137 50 241 5 33 12 71 15
85 14 68 22 122 30 200 4 36 9 74 11 85 2 11 7 52 10 90 3 39 8 86 9 105 2 19
7 78 10 131 l7 95 -26 0 c-15 0 -28 -1 -29 -2z"/>
<path d="M975 2799 c-27 -3 -75 -10 -105 -13 -51 -7 -132 -20 -190 -31 -14 -3
-50 -9 -80 -15 -84 -15 -273 -64 -434 -111 -138 -41 -144 -44 -136 -65 44
-114 215 -422 336 -605 137 -206 255 -351 424 -519 297 -297 625 -503 1020
-640 102 -36 318 -85 416 -96 32 -3 62 -8 65 -10 8 -4 216 -17 284 -17 62 0
283 12 310 17 155 28 157 29 143 41 -7 6 -89 57 -183 114 -597 358 -1049 704
-1204 920 -27 39 -27 39 94 -44 299 -203 677 -394 1180 -597 27 -11 103 -40
168 -63 l118 -43 -6 29 c-30 136 -161 471 -261 667 -249 487 -571 804 -983
967 -118 47 -276 89 -376 102 -22 2 -67 8 -100 13 -71 10 -428 9 -500 -1z"/>
</g>
</svg>
