<?xml version="1.0" encoding="utf-8"?>
<!-- Generator: Adobe Illustrator 21.1.0, SVG Export Plug-In . SVG Version: 6.00 Build 0)  -->
<svg version="1.1" id="Layer_2" xmlns="http://www.w3.org/2000/svg" xmlns:xlink="http://www.w3.org/1999/xlink" x="0px" y="0px"
	 viewBox="0 0 504 504" style="enable-background:new 0 0 504 504;" xml:space="preserve">
<path d="M231.9,358.8c0,0-123.6-133.4,21.1-319.7c91.9,89.5,141.5,192,8.9,319.7c-8.9-57.8-10.6-116.3-4.1-159.8
	C236,233.5,231.9,358.8,231.9,358.8z"/>
<path d="M219.6,451.8c0,0-140.3,37.8-218.2-133.9c97.5-31.7,188.4-28.7,229.4,112.6c-44.2-15.2-86.2-35.8-114.5-56.6
	C132.5,402.3,219.6,451.8,219.6,451.8z"/>
<path d="M261.2,443.8c0,0,18.2-171,240.8-183.6c-6.6,121.1-48.8,220.1-222.1,205c35.6-42.3,76.3-79.8,111.3-102.2
	C353,368.8,261.2,443.8,261.2,443.8z"/>
</svg>
